<svg id="Capa_1" enable-background="new 0 0 512 512" height="512" viewBox="0 0 512 512" width="512" xmlns="http://www.w3.org/2000/svg"><g><path d="m210.036 82.7c-3.273 14.02 7.302 27.79 22.044 27.79h25.06v96c0 17.64 14.36 32 32 32 31.076 0 37.503 1.414 47.656-5.329 8.639-5.736 14.349-15.549 14.349-26.674v-95.997h25.055c15.59 0 26.238-15.24 21.54-29.66h-.009c-2.348-7.192-1.516-4.995-64.373-67.852-16.144-16.145-42.281-16.148-58.428 0-64.123 64.124-62.908 61.242-64.894 69.722z"/><path d="m497 401.667c-415.684 0-397.149.077-397.175-.139-4.556-36.483-4.373-34.149-4.076-34.193 199.47-1.037-277.492.065 368.071.065 26.9 0 47.18-20.38 47.18-47.4v-203.25c0-19.7-16.03-35.76-35.72-35.79l-46.86-.08c3.84 29.005-16.95 56.557-47.28 59.38v66.23c0 34.18-27.81 62-62 62h-30c-34.18 0-62-27.82-62-62v-66.23c-30.334-2.825-51.346-30.564-47.21-59.81l-56.005-.098-9.985-54.992c-2.668-14.694-15.444-25.36-30.379-25.36h-68.561c-8.284 0-15 6.716-15 15s6.716 15 15 15c72.595 0 69.219-.399 69.422.719 16.275 89.632 5.917 26.988 49.58 306.416l-38.388.2c-18.027.069-32.06 15.893-29.81 33.899l4.252 34.016c1.883 15.06 14.748 26.417 29.925 26.417h26.619c-18.799 36.5 7.821 80.333 49.066 80.333 41.22 0 67.876-43.812 49.067-80.333h142.867c-18.801 36.504 7.827 80.333 49.067 80.333 41.22 0 67.875-43.812 49.066-80.333h31.267c8.284 0 15-6.716 15-15s-6.716-15-15-15z"/></g></svg>